<svg width="892" height="155" viewBox="0 0 892 155" fill="none" xmlns="http://www.w3.org/2000/svg">
<g clip-path="url(#clip0_222_611)">
<path d="M0.0996094 152.4L2.69961 1.5H35.2996L53.8996 96.7L73.7996 1.5H105.3L107.9 152.4H85.4996L83.0996 50.1L63.9996 152.4H44.7996L24.6996 49.4L22.6996 152.4H0.0996094Z" fill="url(#paint0_linear_222_611)"/>
<path d="M148.6 152.4V92.6L119.2 1.5H148L164.2 54.6L179.3 1.5H207.2L178.1 92.6V152.4H148.6Z" fill="url(#paint1_linear_222_611)"/>
<path d="M220.1 152.4V1.5H283.8V22.4H250.8V63.2H278.7V84.6H250.8V152.4H220.1Z" fill="url(#paint2_linear_222_611)"/>
<path d="M299.2 152.4V1.5H338.3C348.5 1.5 357.2 2.69999 364.5 4.89999C371.8 7.19999 377.4 11.3 381.3 17.1C385.2 22.9 387.2 31 387.2 41.3C387.2 47.5 386.7 53 385.6 57.8C384.5 62.6 382.7 66.7 380 70.3C377.3 73.8 373.6 76.7 368.7 78.8L389.6 152.4H358.1L340.8 84H330V152.4H299.2ZM330 65.8H338.9C343.9 65.8 347.8 65 350.6 63.4C353.5 61.8 355.5 59.3 356.7 56C357.9 52.7 358.5 48.6 358.5 43.8C358.5 36.8 357.2 31.5 354.7 27.9C352.2 24.2 347.4 22.4 340.5 22.4H330V65.8Z" fill="url(#paint3_linear_222_611)"/>
<path d="M407.8 152.4V1.5H473.5V22.7H438.5V62.7H465.5V84.1H438.5V131.4H473.9V152.3H407.8V152.4Z" fill="url(#paint4_linear_222_611)"/>
<path d="M489.399 152.4V1.5H555.099V22.7H520.099V62.7H547.099V84.1H520.099V131.4H555.499V152.3H489.399V152.4Z" fill="url(#paint5_linear_222_611)"/>
<path d="M571 152.4V1.5H607.9C620.7 1.5 630.599 3.09999 637.799 6.39999C644.899 9.69999 650 14.8 653 21.9C656 28.9 657.5 37.9 657.5 48.8V103.7C657.5 114.9 656 124.1 653 131.3C650 138.5 645 143.8 638 147.2C631 150.6 621.2 152.3 608.7 152.3H571V152.4ZM601.7 131H608.2C613.9 131 618 130.1 620.4 128.3C622.8 126.5 624.3 123.8 625 120.3C625.6 116.8 625.9 112.4 625.9 107.2V45C625.9 39.8 625.5 35.6 624.7 32.4C623.9 29.2 622.3 26.9 619.9 25.4C617.5 23.9 613.499 23.2 608.099 23.2H601.799V131H601.7Z" fill="url(#paint6_linear_222_611)"/>
<path d="M719.799 154.5C708.699 154.5 699.999 152.5 693.499 148.5C686.999 144.5 682.399 138.8 679.599 131.5C676.799 124.1 675.399 115.3 675.399 105V48.8C675.399 38.5 676.799 29.7001 679.599 22.4001C682.399 15.1001 686.999 9.50007 693.499 5.60007C699.999 1.80007 708.699 -0.199951 719.799 -0.199951C730.999 -0.199951 739.799 1.80007 746.299 5.70007C752.799 9.60007 757.499 15.2001 760.299 22.5001C763.099 29.8001 764.499 38.6001 764.499 48.9001V105.1C764.499 115.4 763.099 124.3 760.299 131.6C757.499 139 752.799 144.7 746.299 148.6C739.799 152.5 730.999 154.5 719.799 154.5ZM719.799 132.3C723.799 132.3 726.699 131.4 728.599 129.6C730.499 127.8 731.699 125.4 732.299 122.3C732.899 119.3 733.199 116 733.199 112.5V41.2001C733.199 37.7001 732.899 34.5001 732.299 31.5001C731.699 28.5001 730.399 26.1 728.599 24.3C726.699 22.5 723.799 21.6001 719.799 21.6001C716.099 21.6001 713.299 22.5 711.399 24.3C709.499 26.1 708.299 28.5001 707.699 31.5001C707.099 34.5001 706.799 37.7001 706.799 41.2001V112.5C706.799 116 707.099 119.2 707.599 122.3C708.199 125.3 709.399 127.8 711.199 129.6C713.099 131.4 715.899 132.3 719.799 132.3Z" fill="url(#paint7_linear_222_611)"/>
<path d="M784.399 152.4L786.999 1.5H819.599L838.199 96.7L858.099 1.5H889.599L892.199 152.4H869.799L867.399 50.1L848.199 152.4H828.999L808.899 49.4L806.899 152.4H784.399Z" fill="url(#paint8_linear_222_611)"/>
</g>
<defs>
<linearGradient id="paint0_linear_222_611" x1="54.0415" y1="-25.1219" x2="54.0415" y2="223.138" gradientUnits="userSpaceOnUse">
<stop stop-color="#F9D7AB"/>
<stop offset="0.9992" stop-color="#C07D4C"/>
</linearGradient>
<linearGradient id="paint1_linear_222_611" x1="163.184" y1="-25.1219" x2="163.184" y2="223.138" gradientUnits="userSpaceOnUse">
<stop stop-color="#F9D7AB"/>
<stop offset="0.9992" stop-color="#C07D4C"/>
</linearGradient>
<linearGradient id="paint2_linear_222_611" x1="251.931" y1="-25.1219" x2="251.931" y2="223.138" gradientUnits="userSpaceOnUse">
<stop stop-color="#F9D7AB"/>
<stop offset="0.9992" stop-color="#C07D4C"/>
</linearGradient>
<linearGradient id="paint3_linear_222_611" x1="344.404" y1="-25.1219" x2="344.404" y2="223.138" gradientUnits="userSpaceOnUse">
<stop stop-color="#F9D7AB"/>
<stop offset="0.9992" stop-color="#C07D4C"/>
</linearGradient>
<linearGradient id="paint4_linear_222_611" x1="440.879" y1="-25.1219" x2="440.879" y2="223.138" gradientUnits="userSpaceOnUse">
<stop stop-color="#F9D7AB"/>
<stop offset="0.9992" stop-color="#C07D4C"/>
</linearGradient>
<linearGradient id="paint5_linear_222_611" x1="522.455" y1="-25.1219" x2="522.455" y2="223.138" gradientUnits="userSpaceOnUse">
<stop stop-color="#F9D7AB"/>
<stop offset="0.9992" stop-color="#C07D4C"/>
</linearGradient>
<linearGradient id="paint6_linear_222_611" x1="614.181" y1="-25.1219" x2="614.181" y2="223.138" gradientUnits="userSpaceOnUse">
<stop stop-color="#F9D7AB"/>
<stop offset="0.9992" stop-color="#C07D4C"/>
</linearGradient>
<linearGradient id="paint7_linear_222_611" x1="719.971" y1="-25.122" x2="719.971" y2="223.137" gradientUnits="userSpaceOnUse">
<stop stop-color="#F9D7AB"/>
<stop offset="0.9992" stop-color="#C07D4C"/>
</linearGradient>
<linearGradient id="paint8_linear_222_611" x1="838.331" y1="-25.1219" x2="838.331" y2="223.138" gradientUnits="userSpaceOnUse">
<stop stop-color="#F9D7AB"/>
<stop offset="0.9992" stop-color="#C07D4C"/>
</linearGradient>
<clipPath id="clip0_222_611">
<rect width="892" height="155" fill="white"/>
</clipPath>
</defs>
</svg>
